<svg width="17" height="17" viewBox="0 0 17 17" fill="none" xmlns="http://www.w3.org/2000/svg">
<mask id="path-1-inside-1_750_34" fill="white">
<path d="M13.3335 13C13.7755 13 14.1994 13.1756 14.512 13.4882C14.8246 13.8007 15.0002 14.2246 15.0002 14.6667C15.0002 15.1087 14.8246 15.5326 14.512 15.8452C14.1994 16.1577 13.7755 16.3333 13.3335 16.3333C12.8915 16.3333 12.4675 16.1577 12.155 15.8452C11.8424 15.5326 11.6668 15.1087 11.6668 14.6667C11.6668 14.2246 11.8424 13.8007 12.155 13.4882C12.4675 13.1756 12.8915 13 13.3335 13ZM13.3335 13.8333C13.1125 13.8333 12.9005 13.9211 12.7442 14.0774C12.588 14.2337 12.5002 14.4457 12.5002 14.6667C12.5002 14.8877 12.588 15.0996 12.7442 15.2559C12.9005 15.4122 13.1125 15.5 13.3335 15.5C13.5545 15.5 13.7665 15.4122 13.9228 15.2559C14.079 15.0996 14.1668 14.8877 14.1668 14.6667C14.1668 14.4457 14.079 14.2337 13.9228 14.0774C13.7665 13.9211 13.5545 13.8333 13.3335 13.8333ZM5.8335 13C6.27552 13 6.69945 13.1756 7.01201 13.4882C7.32457 13.8007 7.50016 14.2246 7.50016 14.6667C7.50016 15.1087 7.32457 15.5326 7.01201 15.8452C6.69945 16.1577 6.27552 16.3333 5.8335 16.3333C5.39147 16.3333 4.96755 16.1577 4.65499 15.8452C4.34242 15.5326 4.16683 15.1087 4.16683 14.6667C4.16683 14.2246 4.34242 13.8007 4.65499 13.4882C4.96755 13.1756 5.39147 13 5.8335 13V13ZM5.8335 13.8333C5.61248 13.8333 5.40052 13.9211 5.24424 14.0774C5.08796 14.2337 5.00016 14.4457 5.00016 14.6667C5.00016 14.8877 5.08796 15.0996 5.24424 15.2559C5.40052 15.4122 5.61248 15.5 5.8335 15.5C6.05451 15.5 6.26647 15.4122 6.42275 15.2559C6.57903 15.0996 6.66683 14.8877 6.66683 14.6667C6.66683 14.4457 6.57903 14.2337 6.42275 14.0774C6.26647 13.9211 6.05451 13.8333 5.8335 13.8333ZM15.0002 3H3.561L5.6835 8H12.5002C12.6297 8.0002 12.7576 7.96999 12.8734 7.91181C12.9891 7.85363 13.0897 7.76909 13.1668 7.665L15.6668 4.33167H15.6677C15.7601 4.2078 15.8162 4.06067 15.8298 3.90672C15.8435 3.75277 15.814 3.59807 15.7447 3.45991C15.6755 3.32175 15.5692 3.20556 15.4377 3.12435C15.3062 3.04313 15.1547 3.00008 15.0002 3V3ZM12.5002 8.83333H5.72183L5.0835 10.1333L5.00016 10.5C5.00016 10.721 5.08796 10.933 5.24424 11.0893C5.40052 11.2455 5.61248 11.3333 5.8335 11.3333H15.0002V12.1667H5.8335C5.5433 12.1668 5.2581 12.0912 5.00611 11.9473C4.75412 11.8033 4.54407 11.5961 4.39675 11.3461C4.24943 11.0961 4.16995 10.8119 4.16616 10.5217C4.16238 10.2316 4.23442 9.94545 4.37516 9.69167L4.97516 8.46333L1.9485 1.33333H0.833496V0.5H2.50016L3.20766 2.16667H15.0002C15.3151 2.1667 15.6235 2.25593 15.8898 2.42405C16.156 2.59216 16.3692 2.83226 16.5047 3.11654C16.6401 3.40083 16.6922 3.71767 16.655 4.03035C16.6178 4.34304 16.4927 4.63879 16.2943 4.88333L13.866 8.12167C13.7125 8.3415 13.5081 8.52101 13.2703 8.64491C13.0325 8.76882 12.7683 8.83346 12.5002 8.83333V8.83333Z"/>
</mask>
<path d="M13.3335 13C13.7755 13 14.1994 13.1756 14.512 13.4882C14.8246 13.8007 15.0002 14.2246 15.0002 14.6667C15.0002 15.1087 14.8246 15.5326 14.512 15.8452C14.1994 16.1577 13.7755 16.3333 13.3335 16.3333C12.8915 16.3333 12.4675 16.1577 12.155 15.8452C11.8424 15.5326 11.6668 15.1087 11.6668 14.6667C11.6668 14.2246 11.8424 13.8007 12.155 13.4882C12.4675 13.1756 12.8915 13 13.3335 13ZM13.3335 13.8333C13.1125 13.8333 12.9005 13.9211 12.7442 14.0774C12.588 14.2337 12.5002 14.4457 12.5002 14.6667C12.5002 14.8877 12.588 15.0996 12.7442 15.2559C12.9005 15.4122 13.1125 15.5 13.3335 15.5C13.5545 15.5 13.7665 15.4122 13.9228 15.2559C14.079 15.0996 14.1668 14.8877 14.1668 14.6667C14.1668 14.4457 14.079 14.2337 13.9228 14.0774C13.7665 13.9211 13.5545 13.8333 13.3335 13.8333ZM5.8335 13C6.27552 13 6.69945 13.1756 7.01201 13.4882C7.32457 13.8007 7.50016 14.2246 7.50016 14.6667C7.50016 15.1087 7.32457 15.5326 7.01201 15.8452C6.69945 16.1577 6.27552 16.3333 5.8335 16.3333C5.39147 16.3333 4.96755 16.1577 4.65499 15.8452C4.34242 15.5326 4.16683 15.1087 4.16683 14.6667C4.16683 14.2246 4.34242 13.8007 4.65499 13.4882C4.96755 13.1756 5.39147 13 5.8335 13V13ZM5.8335 13.8333C5.61248 13.8333 5.40052 13.9211 5.24424 14.0774C5.08796 14.2337 5.00016 14.4457 5.00016 14.6667C5.00016 14.8877 5.08796 15.0996 5.24424 15.2559C5.40052 15.4122 5.61248 15.5 5.8335 15.5C6.05451 15.5 6.26647 15.4122 6.42275 15.2559C6.57903 15.0996 6.66683 14.8877 6.66683 14.6667C6.66683 14.4457 6.57903 14.2337 6.42275 14.0774C6.26647 13.9211 6.05451 13.8333 5.8335 13.8333ZM15.0002 3H3.561L5.6835 8H12.5002C12.6297 8.0002 12.7576 7.96999 12.8734 7.91181C12.9891 7.85363 13.0897 7.76909 13.1668 7.665L15.6668 4.33167H15.6677C15.7601 4.2078 15.8162 4.06067 15.8298 3.90672C15.8435 3.75277 15.814 3.59807 15.7447 3.45991C15.6755 3.32175 15.5692 3.20556 15.4377 3.12435C15.3062 3.04313 15.1547 3.00008 15.0002 3V3ZM12.5002 8.83333H5.72183L5.0835 10.1333L5.00016 10.5C5.00016 10.721 5.08796 10.933 5.24424 11.0893C5.40052 11.2455 5.61248 11.3333 5.8335 11.3333H15.0002V12.1667H5.8335C5.5433 12.1668 5.2581 12.0912 5.00611 11.9473C4.75412 11.8033 4.54407 11.5961 4.39675 11.3461C4.24943 11.0961 4.16995 10.8119 4.16616 10.5217C4.16238 10.2316 4.23442 9.94545 4.37516 9.69167L4.97516 8.46333L1.9485 1.33333H0.833496V0.5H2.50016L3.20766 2.16667H15.0002C15.3151 2.1667 15.6235 2.25593 15.8898 2.42405C16.156 2.59216 16.3692 2.83226 16.5047 3.11654C16.6401 3.40083 16.6922 3.71767 16.655 4.03035C16.6178 4.34304 16.4927 4.63879 16.2943 4.88333L13.866 8.12167C13.7125 8.3415 13.5081 8.52101 13.2703 8.64491C13.0325 8.76882 12.7683 8.83346 12.5002 8.83333V8.83333Z" fill="#FFEBEB"/>
<path d="M4.16683 14.6667H0.16683H4.16683ZM3.561 3V-1H-2.48249L-0.120989 4.563L3.561 3ZM5.6835 8L2.00151 9.563L3.03602 12H5.6835V8ZM12.5002 8L12.5063 4H12.5002V8ZM13.1668 7.665L9.96683 5.265L9.9602 5.27384L9.95363 5.28271L13.1668 7.665ZM15.6668 4.33167V0.331667H13.6668L12.4668 1.93167L15.6668 4.33167ZM15.6677 4.33167V8.33167H17.6739L18.8736 6.72367L15.6677 4.33167ZM5.72183 8.83333V4.83333H3.22974L2.13133 7.0703L5.72183 8.83333ZM5.0835 10.1333L1.49299 8.3703L1.2867 8.79044L1.18297 9.24685L5.0835 10.1333ZM5.00016 10.5L1.09963 9.61351L1.00016 10.0512V10.5H5.00016ZM15.0002 11.3333H19.0002V7.33333H15.0002V11.3333ZM15.0002 12.1667V16.1667H19.0002V12.1667H15.0002ZM5.8335 12.1667V8.16667L5.83155 8.16667L5.8335 12.1667ZM4.37516 9.69167L7.87322 11.6317L7.92366 11.5407L7.9693 11.4473L4.37516 9.69167ZM4.97516 8.46333L8.5693 10.2189L9.37003 8.57968L8.65715 6.90034L4.97516 8.46333ZM1.9485 1.33333L5.63049 -0.229662L4.59598 -2.66667H1.9485V1.33333ZM0.833496 1.33333H-3.1665V5.33333H0.833496V1.33333ZM0.833496 0.5V-3.5H-3.1665V0.5H0.833496ZM2.50016 0.5L6.18215 -1.063L5.14764 -3.5H2.50016V0.5ZM3.20766 2.16667L-0.474323 3.72967L0.560183 6.16667H3.20766V2.16667ZM15.0002 2.16667L15.0005 -1.83333H15.0002V2.16667ZM16.2943 4.88333L13.188 2.36333L13.1399 2.42257L13.0941 2.4836L16.2943 4.88333ZM13.866 8.12167L10.6658 5.72193L10.6253 5.77598L10.5866 5.83138L13.866 8.12167ZM13.3335 17C12.7147 17 12.1212 16.7542 11.6836 16.3166L17.3404 10.6597C16.2777 9.59702 14.8364 9 13.3335 9V17ZM11.6836 16.3166C11.246 15.879 11.0002 15.2855 11.0002 14.6667H19.0002C19.0002 13.1638 18.4031 11.7224 17.3404 10.6597L11.6836 16.3166ZM11.0002 14.6667C11.0002 14.0478 11.246 13.4543 11.6836 13.0167L17.3404 18.6736C18.4031 17.6109 19.0002 16.1696 19.0002 14.6667H11.0002ZM11.6836 13.0167C12.1212 12.5792 12.7147 12.3333 13.3335 12.3333V20.3333C14.8364 20.3333 16.2777 19.7363 17.3404 18.6736L11.6836 13.0167ZM13.3335 12.3333C13.9523 12.3333 14.5458 12.5792 14.9834 13.0167L9.32656 18.6736C10.3893 19.7363 11.8306 20.3333 13.3335 20.3333V12.3333ZM14.9834 13.0167C15.421 13.4543 15.6668 14.0478 15.6668 14.6667H7.66683C7.66683 16.1696 8.26386 17.6109 9.32656 18.6736L14.9834 13.0167ZM15.6668 14.6667C15.6668 15.2855 15.421 15.879 14.9834 16.3166L9.32656 10.6597C8.26386 11.7224 7.66683 13.1638 7.66683 14.6667H15.6668ZM14.9834 16.3166C14.5458 16.7542 13.9523 17 13.3335 17V9C11.8306 9 10.3893 9.59702 9.32656 10.6597L14.9834 16.3166ZM13.3335 9.83333C12.0516 9.83333 10.8222 10.3426 9.91582 11.249L15.5727 16.9058C14.9788 17.4997 14.1733 17.8333 13.3335 17.8333V9.83333ZM9.91582 11.249C9.00939 12.1554 8.50016 13.3848 8.50016 14.6667H16.5002C16.5002 15.5065 16.1665 16.312 15.5727 16.9058L9.91582 11.249ZM8.50016 14.6667C8.50016 15.9485 9.00939 17.1779 9.91582 18.0844L15.5727 12.4275C16.1665 13.0214 16.5002 13.8268 16.5002 14.6667H8.50016ZM9.91582 18.0844C10.8222 18.9908 12.0516 19.5 13.3335 19.5V11.5C14.1733 11.5 14.9788 11.8336 15.5727 12.4275L9.91582 18.0844ZM13.3335 19.5C14.6154 19.5 15.8447 18.9908 16.7512 18.0844L11.0943 12.4275C11.6882 11.8336 12.4937 11.5 13.3335 11.5V19.5ZM16.7512 18.0844C17.6576 17.1779 18.1668 15.9485 18.1668 14.6667H10.1668C10.1668 13.8268 10.5005 13.0214 11.0943 12.4275L16.7512 18.0844ZM18.1668 14.6667C18.1668 13.3848 17.6576 12.1554 16.7512 11.249L11.0943 16.9058C10.5005 16.312 10.1668 15.5065 10.1668 14.6667H18.1668ZM16.7512 11.249C15.8447 10.3425 14.6154 9.83333 13.3335 9.83333V17.8333C12.4937 17.8333 11.6882 17.4997 11.0943 16.9058L16.7512 11.249ZM5.8335 17C5.21466 17 4.62116 16.7542 4.18358 16.3166L9.84044 10.6597C8.77773 9.59702 7.33639 9 5.8335 9V17ZM4.18358 16.3166C3.746 15.879 3.50016 15.2855 3.50016 14.6667H11.5002C11.5002 13.1638 10.9031 11.7224 9.84044 10.6597L4.18358 16.3166ZM3.50016 14.6667C3.50016 14.0478 3.746 13.4543 4.18358 13.0167L9.84044 18.6736C10.9031 17.6109 11.5002 16.1696 11.5002 14.6667H3.50016ZM4.18358 13.0167C4.62116 12.5792 5.21466 12.3333 5.8335 12.3333V20.3333C7.33639 20.3333 8.77773 19.7363 9.84044 18.6736L4.18358 13.0167ZM5.8335 12.3333C6.45234 12.3333 7.04583 12.5792 7.48341 13.0167L1.82656 18.6736C2.88926 19.7363 4.3306 20.3333 5.8335 20.3333V12.3333ZM7.48341 13.0167C7.921 13.4543 8.16683 14.0478 8.16683 14.6667H0.16683C0.16683 16.1696 0.763853 17.6109 1.82656 18.6736L7.48341 13.0167ZM8.16683 14.6667C8.16683 15.2855 7.921 15.879 7.48341 16.3166L1.82656 10.6597C0.763853 11.7224 0.16683 13.1638 0.16683 14.6667H8.16683ZM7.48341 16.3166C7.04583 16.7542 6.45234 17 5.8335 17V9C4.3306 9 2.88926 9.59702 1.82656 10.6597L7.48341 16.3166ZM5.8335 9.83333C4.55162 9.83333 3.32225 10.3426 2.41581 11.249L8.07267 16.9058C7.4788 17.4997 6.67334 17.8333 5.8335 17.8333V9.83333ZM2.41581 11.249C1.50939 12.1554 1.00016 13.3848 1.00016 14.6667H9.00016C9.00016 15.5065 8.66653 16.312 8.07267 16.9058L2.41581 11.249ZM1.00016 14.6667C1.00016 15.9485 1.50939 17.1779 2.41581 18.0844L8.07267 12.4275C8.66653 13.0214 9.00016 13.8268 9.00016 14.6667H1.00016ZM2.41581 18.0844C3.32225 18.9908 4.55162 19.5 5.8335 19.5V11.5C6.67334 11.5 7.4788 11.8336 8.07267 12.4275L2.41581 18.0844ZM5.8335 19.5C7.11537 19.5 8.34475 18.9908 9.25118 18.0844L3.59433 12.4275C4.1882 11.8336 4.99365 11.5 5.8335 11.5V19.5ZM9.25118 18.0844C10.1576 17.1779 10.6668 15.9485 10.6668 14.6667H2.66683C2.66683 13.8268 3.00046 13.0214 3.59433 12.4275L9.25118 18.0844ZM10.6668 14.6667C10.6668 13.3848 10.1576 12.1554 9.25118 11.249L3.59433 16.9058C3.00046 16.312 2.66683 15.5065 2.66683 14.6667H10.6668ZM9.25118 11.249C8.34475 10.3426 7.11537 9.83333 5.8335 9.83333V17.8333C4.99365 17.8333 4.1882 17.4997 3.59433 16.9058L9.25118 11.249ZM15.0002 -1H3.561V7H15.0002V-1ZM-0.120989 4.563L2.00151 9.563L9.36548 6.437L7.24298 1.437L-0.120989 4.563ZM5.6835 12H12.5002V4H5.6835V12ZM12.4941 12C13.2494 12.0011 13.9944 11.8251 14.6693 11.4859L11.0774 4.33768C11.5207 4.11491 12.0101 3.99925 12.5063 4L12.4941 12ZM14.6693 11.4859C15.3443 11.1468 15.9302 10.654 16.38 10.0473L9.95363 5.28271C10.2491 4.88414 10.634 4.56046 11.0774 4.33768L14.6693 11.4859ZM16.3668 10.065L18.8668 6.73167L12.4668 1.93167L9.96683 5.265L16.3668 10.065ZM15.6668 8.33167H15.6677V0.331667H15.6668V8.33167ZM18.8736 6.72367C19.4097 6.00522 19.7354 5.15186 19.8143 4.25897L11.8454 3.55447C11.8971 2.96947 12.1105 2.41038 12.4617 1.93967L18.8736 6.72367ZM19.8143 4.25897C19.8932 3.36609 19.7223 2.46883 19.3207 1.66748L12.1688 5.25234C11.9056 4.72731 11.7937 4.13945 11.8454 3.55447L19.8143 4.25897ZM19.3207 1.66748C18.919 0.866121 18.3024 0.192269 17.5397 -0.278787L13.3356 6.52748C12.836 6.21886 12.432 5.77737 12.1688 5.25234L19.3207 1.66748ZM17.5397 -0.278787C16.7771 -0.749847 15.8985 -0.999555 15.0021 -1L14.9982 7C14.4109 6.99971 13.8353 6.83611 13.3356 6.52748L17.5397 -0.278787ZM12.5002 4.83333H5.72183V12.8333H12.5002V4.83333ZM2.13133 7.0703L1.49299 8.3703L8.674 11.8964L9.31234 10.5964L2.13133 7.0703ZM1.18297 9.24685L1.09963 9.61351L8.90069 11.3865L8.98403 11.0198L1.18297 9.24685ZM1.00016 10.5C1.00016 11.7819 1.50939 13.0113 2.41581 13.9177L8.07267 8.26083C8.66653 8.85469 9.00016 9.66014 9.00016 10.5H1.00016ZM2.41581 13.9177C3.32224 14.8241 4.55161 15.3333 5.8335 15.3333V7.33333C6.67335 7.33333 7.47881 7.66696 8.07267 8.26083L2.41581 13.9177ZM5.8335 15.3333H15.0002V7.33333H5.8335V15.3333ZM11.0002 11.3333V12.1667H19.0002V11.3333H11.0002ZM15.0002 8.16667H5.8335V16.1667H15.0002V8.16667ZM5.83155 8.16667C6.23782 8.16647 6.63711 8.27235 6.9899 8.47384L3.02232 15.4207C3.87909 15.91 4.84878 16.1671 5.83544 16.1667L5.83155 8.16667ZM6.9899 8.47384C7.34269 8.67533 7.63675 8.96545 7.843 9.31547L0.950508 13.3767C1.45139 14.2268 2.16555 14.9313 3.02232 15.4207L6.9899 8.47384ZM7.843 9.31547C8.04924 9.6655 8.16052 10.0633 8.16582 10.4696L0.166503 10.5739C0.179376 11.5605 0.449624 12.5266 0.950508 13.3767L7.843 9.31547ZM8.16582 10.4696C8.17112 10.8758 8.07026 11.2764 7.87322 11.6317L0.877107 7.75167C0.398576 8.61452 0.153629 9.58736 0.166503 10.5739L8.16582 10.4696ZM7.9693 11.4473L8.5693 10.2189L1.38103 6.70772L0.781028 7.93605L7.9693 11.4473ZM8.65715 6.90034L5.63049 -0.229662L-1.73349 2.89633L1.29317 10.0263L8.65715 6.90034ZM1.9485 -2.66667H0.833496V5.33333H1.9485V-2.66667ZM4.8335 1.33333V0.5H-3.1665V1.33333H4.8335ZM0.833496 4.5H2.50016V-3.5H0.833496V4.5ZM-1.18182 2.063L-0.474323 3.72967L6.88965 0.603663L6.18215 -1.063L-1.18182 2.063ZM3.20766 6.16667H15.0002V-1.83333H3.20766V6.16667ZM14.9998 6.16667C14.5589 6.16662 14.1271 6.04169 13.7543 5.80634L18.0252 -0.958247C17.1199 -1.52982 16.0712 -1.83323 15.0005 -1.83333L14.9998 6.16667ZM13.7543 5.80634C13.3816 5.57098 13.0831 5.23483 12.8935 4.83684L20.1158 1.39625C19.6554 0.429683 18.9305 -0.38667 18.0252 -0.958247L13.7543 5.80634ZM12.8935 4.83684C12.7039 4.43884 12.6309 3.99527 12.683 3.5575L20.6269 4.5032C20.7535 3.44006 20.5763 2.36282 20.1158 1.39625L12.8935 4.83684ZM12.683 3.5575C12.7351 3.11974 12.9102 2.7057 13.188 2.36333L19.4007 7.40333C20.0752 6.57188 20.5004 5.56635 20.6269 4.5032L12.683 3.5575ZM13.0941 2.4836L10.6658 5.72193L17.0662 10.5214L19.4945 7.28307L13.0941 2.4836ZM10.5866 5.83138C10.8019 5.52308 11.0885 5.27134 11.422 5.09757L15.1187 12.1923C15.9277 11.7707 16.623 11.1599 17.1454 10.412L10.5866 5.83138ZM11.422 5.09757C11.7555 4.92381 12.126 4.83316 12.502 4.83333L12.4983 12.8333C13.4106 12.8338 14.3096 12.6138 15.1187 12.1923L11.422 5.09757Z" fill="white" mask="url(#path-1-inside-1_750_34)"/>
</svg>
