<svg width="18" height="18" viewBox="0 0 18 18" fill="none" xmlns="http://www.w3.org/2000/svg">
<g clip-path="url(#clip0_555_15138)">
<path d="M3.19531 6.35352C3.10207 6.35352 3.01264 6.39055 2.94671 6.45648C2.88078 6.52241 2.84375 6.61184 2.84375 6.70508C2.84375 6.79832 2.88078 6.88774 2.94671 6.95367C3.01264 7.0196 3.10207 7.05664 3.19531 7.05664C3.28855 7.05664 3.37795 7.0196 3.44388 6.95367C3.50981 6.88774 3.54688 6.79832 3.54688 6.70508C3.54688 6.61184 3.50981 6.52241 3.44388 6.45648C3.37795 6.39055 3.28855 6.35352 3.19531 6.35352Z" fill="black"/>
<path d="M13.0409 10.5534C12.975 10.4874 12.8855 10.4504 12.7923 10.4504C12.6992 10.4509 12.61 10.4879 12.5438 10.5534L12.2956 10.8019L11.487 9.99334C12.3539 8.77468 12.7609 7.28822 12.6358 5.79791C12.5106 4.30759 11.8613 2.90986 10.8032 1.85291C10.2159 1.26489 9.51843 0.798413 8.75071 0.480141C7.983 0.161869 7.16009 -0.00195312 6.32902 -0.00195312C5.49795 -0.00195312 4.67503 0.161869 3.90732 0.480141C3.13961 0.798413 2.44217 1.26489 1.85487 1.85291C1.26685 2.44021 0.800366 3.13765 0.482094 3.90536C0.163822 4.67308 0 5.496 0 6.32707C0 7.15814 0.163822 7.98106 0.482094 8.74877C0.800366 9.51649 1.26685 10.2139 1.85487 10.8012C2.91178 11.8594 4.30952 12.5087 5.79985 12.6339C7.29019 12.7591 8.77667 12.352 9.99529 11.485L10.8039 12.2936L10.5553 12.5418C10.5226 12.5745 10.4967 12.6132 10.479 12.6559C10.4613 12.6986 10.4522 12.7443 10.4522 12.7905C10.4522 12.8367 10.4613 12.8825 10.479 12.9252C10.4967 12.9678 10.5226 13.0066 10.5553 13.0393L14.9998 17.4834C15.1629 17.6468 15.3566 17.7765 15.5698 17.8649C15.7831 17.9534 16.0117 17.9989 16.2426 17.9989C16.4734 17.9989 16.702 17.9534 16.9153 17.8649C17.1285 17.7765 17.3222 17.6468 17.4853 17.4834C17.6487 17.3203 17.7783 17.1266 17.8668 16.9134C17.9552 16.7002 18.0007 16.4716 18.0007 16.2408C18.0007 16.0099 17.9552 15.7814 17.8668 15.5682C17.7783 15.3549 17.6487 15.1613 17.4853 14.9982L13.0409 10.5534ZM11.301 11.7965L10.5497 11.0456C10.6373 10.967 10.7226 10.8864 10.8053 10.8037C10.888 10.721 10.9686 10.6358 11.0472 10.5481L11.7999 11.3008L11.301 11.7965ZM2.35337 10.3073C1.83075 9.7852 1.41614 9.16524 1.13327 8.48283C0.850403 7.80042 0.704807 7.06895 0.704807 6.33023C0.704807 5.59152 0.850403 4.86005 1.13327 4.17764C1.41614 3.49523 1.83075 2.87526 2.35337 2.35318C2.87545 1.83056 3.49542 1.41596 4.17783 1.13309C4.86024 0.850223 5.59171 0.704622 6.33043 0.704622C7.06914 0.704622 7.80061 0.850223 8.48302 1.13309C9.16543 1.41596 9.7854 1.83056 10.3075 2.35318C10.8302 2.87519 11.2449 3.49513 11.5279 4.17755C11.8108 4.85997 11.9565 5.59148 11.9565 6.33023C11.9565 7.06899 11.8108 7.80049 11.5279 8.48291C11.2449 9.16533 10.8302 9.78527 10.3075 10.3073C8.07822 12.5365 4.52146 12.4754 2.35337 10.3073ZM12.7948 11.2997L13.789 12.294L12.2977 13.7853L11.3035 12.7911L12.7948 11.2997ZM16.9896 16.987C16.7919 17.1846 16.5237 17.2956 16.2441 17.2956C15.9646 17.2956 15.6964 17.1846 15.4987 16.987L12.7948 14.2824L14.2861 12.7911L16.9907 15.496C17.1883 15.6938 17.2993 15.9619 17.2993 16.2415C17.2993 16.5211 17.1883 16.7892 16.9907 16.987H16.9896Z" fill="black"/>
<path d="M9.80604 2.84986C9.34914 2.39252 8.80659 2.02971 8.20939 1.78217C7.61219 1.53464 6.97205 1.40723 6.32558 1.40723C5.67911 1.40723 5.03896 1.53464 4.44176 1.78217C3.84456 2.02971 3.30201 2.39252 2.84511 2.84986C0.926631 4.76869 0.926631 7.89091 2.84511 9.8108C3.30196 10.2682 3.84452 10.6311 4.44173 10.8787C5.03894 11.1263 5.67908 11.2537 6.32558 11.2537C6.97207 11.2537 7.61221 11.1263 8.20942 10.8787C8.80663 10.6311 9.34919 10.2682 9.80604 9.8108C11.7249 7.89162 11.7249 4.76939 9.80604 2.84986ZM9.30929 9.31228C8.91777 9.70433 8.4528 10.0153 7.94098 10.2275C7.42916 10.4397 6.88053 10.549 6.32647 10.549C5.7724 10.549 5.22374 10.4397 4.71192 10.2275C4.2001 10.0153 3.73514 9.70433 3.34361 9.31228C2.55386 8.52033 2.11036 7.44753 2.11036 6.3291C2.11036 5.21066 2.55386 4.13786 3.34361 3.34591C4.13477 2.55481 5.20781 2.11037 6.32664 2.11037C7.44547 2.11037 8.51847 2.55481 9.30963 3.34591C10.0996 4.13755 10.5432 5.21023 10.5432 6.32857C10.5432 7.44692 10.0996 8.51959 9.30963 9.31123L9.30929 9.31228Z" fill="black"/>
<path d="M6.32949 2.81447C5.86772 2.81306 5.41028 2.90329 4.98363 3.07993C4.55698 3.25656 4.16961 3.51609 3.84397 3.84349C3.46276 4.22247 3.17484 4.68487 3.003 5.1942C2.97306 5.28245 2.97941 5.37898 3.02061 5.46257C3.06182 5.54616 3.1345 5.60997 3.22273 5.63998C3.31103 5.6699 3.40761 5.66352 3.49121 5.62225C3.57481 5.58098 3.6386 5.50819 3.66853 5.4199C3.80614 5.01292 4.03636 4.64346 4.34107 4.3406C4.60161 4.07873 4.91151 3.87115 5.25283 3.72988C5.59415 3.58861 5.96009 3.51646 6.32949 3.51759C6.42273 3.51759 6.51216 3.48055 6.57809 3.41462C6.64402 3.34869 6.68105 3.25927 6.68105 3.16603C6.68105 3.07279 6.64402 2.98337 6.57809 2.91744C6.51216 2.85151 6.42273 2.81447 6.32949 2.81447Z" fill="black"/>
</g>
<defs>
<clipPath id="clip0_555_15138">
<rect width="18" height="18" fill="white"/>
</clipPath>
</defs>
</svg>
